<?xml version="1.0" encoding="utf-8"?>
<!-- Generator: Adobe Illustrator 22.0.1, SVG Export Plug-In . SVG Version: 6.00 Build 0)  -->
<svg version="1.1" xmlns="http://www.w3.org/2000/svg" xmlns:xlink="http://www.w3.org/1999/xlink" x="0px" y="0px"
	 viewBox="0 0 1730.4 1500" style="enable-background:new 0 0 1730.4 1500;" xml:space="preserve">
<style type="text/css">
	.st0{fill:#FCFCFC;}
	.st1{fill:#F4F4F4;}
	.st2{fill:#FFFFFF;}
	.st3{fill:#F9F9F9;}
	.st4{fill:#FEFEFE;}
	.st5{fill:#F3F3F3;}
	.st6{fill:#FAFAFA;}
	.st7{fill:#F8F8F8;}
	.st8{fill:#EFEFEF;}
	.st9{display:none;}
	.st10{display:inline;fill:url(#SVGID_1_);}
	.st11{display:inline;fill:url(#SVGID_2_);}
	.st12{display:inline;fill:url(#SVGID_3_);}
	.st13{display:inline;fill:url(#SVGID_4_);}
	.st14{display:inline;fill:url(#SVGID_5_);}
	.st15{display:inline;fill:url(#SVGID_6_);}
	.st16{display:inline;fill:url(#SVGID_7_);}
	.st17{display:inline;fill:url(#SVGID_8_);}
	.st18{display:inline;fill:url(#SVGID_9_);}
	.st19{display:inline;fill:url(#SVGID_10_);}
	.st20{display:inline;fill:url(#SVGID_11_);}
	.st21{display:inline;fill:url(#SVGID_12_);}
	.st22{display:inline;fill:url(#SVGID_13_);}
	.st23{display:inline;fill:url(#SVGID_14_);}
	.st24{display:inline;fill:url(#SVGID_15_);}
	.st25{display:inline;fill:url(#SVGID_16_);}
	.st26{display:inline;fill:url(#SVGID_17_);}
	.st27{display:inline;fill:url(#SVGID_18_);}
	.st28{display:inline;fill:url(#SVGID_19_);}
	.st29{display:inline;fill:url(#SVGID_20_);}
	.st30{display:inline;fill:url(#SVGID_21_);}
	.st31{display:inline;fill:url(#SVGID_22_);}
	.st32{display:inline;fill:url(#SVGID_23_);}
	.st33{display:inline;fill:url(#SVGID_24_);}
	.st34{display:inline;fill:url(#SVGID_25_);}
	.st35{display:inline;fill:url(#SVGID_26_);}
	.st36{display:inline;fill:url(#SVGID_27_);}
	.st37{display:inline;fill:url(#SVGID_28_);}
	.st38{display:inline;fill:url(#SVGID_29_);}
</style>
<g id="Left">
	<polygon id="_x39_" class="st0" points="865.2,1500 1038.4,1200 692,1200 	"/>
	<polygon id="_x38_" class="st1" points="865.2,900 692,1200 1038.4,1200 	"/>
	<polygon id="_x37__2_" class="st2" points="692.2,1200 865.4,900 519,900 	"/>
	<polygon id="_x36_" class="st3" points="692.2,600 519,900 865.4,900 	"/>
	<polygon id="_x35_" class="st1" points="519.2,900 692.4,600 346,600 	"/>
	<polygon id="_x34_" class="st4" points="519.2,300 346,600 692.4,600 	"/>
	<polygon id="_x33_" class="st5" points="346.2,600 519.4,300 173,300 	"/>
	<polygon id="_x32_" class="st4" points="346.2,0 173,300 519.4,300 	"/>
	<polygon id="_x31_" class="st1" points="173.2,300 346.4,0 0,0 	"/>
</g>
<g id="Right">
	<polygon id="_x37__1_" class="st6" points="1557.2,300 1384,0 1730.4,0 	"/>
	<polygon id="_x36__1_" class="st2" points="1384.2,0 1557.4,300 1211,300 	"/>
	<polygon id="_x35__1_" class="st7" points="1384.2,600 1211,300 1557.4,300 	"/>
	<polygon id="_x34__1_" class="st2" points="1211.2,300 1384.4,600 1038,600 	"/>
	<polygon id="_x33__1_" class="st7" points="1211.2,900 1038,600 1384.4,600 	"/>
	<polygon id="_x32__1_" class="st8" points="1038.2,600 1211.4,900 865,900 	"/>
	<polygon id="_x31__1_" class="st2" points="1038.2,1200 865,900 1211.4,900 	"/>
</g>
<g id="Top">
	<polygon id="_x33__2_" class="st7" points="865.2,300 692,0 1038.4,0 	"/>
	<polygon id="_x32__2_" class="st2" points="1038.2,0 1211.4,300 865,300 	"/>
	<polygon id="_x31__2_" class="st1" points="1211.2,300 1038,0 1384.4,0 	"/>
</g>
<g id="Grouped_Together" class="st9">
	<linearGradient id="SVGID_1_" gradientUnits="userSpaceOnUse" x1="691.9951" y1="1199.91" x2="692.2051" y2="1199.91">
		<stop  offset="0" style="stop-color:#4BBCC0"/>
		<stop  offset="1" style="stop-color:#8AFFC7"/>
	</linearGradient>
	<polygon class="st10" points="692.1,1199.8 692.2,1200 692,1200 	"/>
	<linearGradient id="SVGID_2_" gradientUnits="userSpaceOnUse" x1="865.105" y1="900.18" x2="865.3149" y2="900.18">
		<stop  offset="0" style="stop-color:#4BBCC0"/>
		<stop  offset="1" style="stop-color:#8AFFC7"/>
	</linearGradient>
	<polygon class="st11" points="865.2,900 865.3,900.2 865.2,900.4 865.1,900.2 	"/>
	<linearGradient id="SVGID_3_" gradientUnits="userSpaceOnUse" x1="1038.2051" y1="1199.91" x2="1038.415" y2="1199.91">
		<stop  offset="0" style="stop-color:#4BBCC0"/>
		<stop  offset="1" style="stop-color:#8AFFC7"/>
	</linearGradient>
	<polygon class="st12" points="1038.4,1200 1038.2,1200 1038.3,1199.8 	"/>
	<linearGradient id="SVGID_4_" gradientUnits="userSpaceOnUse" x1="864.9951" y1="900.18" x2="865.415" y2="900.18">
		<stop  offset="0" style="stop-color:#4BBCC0"/>
		<stop  offset="1" style="stop-color:#8AFFC7"/>
	</linearGradient>
	<polygon class="st13" points="865.4,900 865.3,900.2 865.2,900.4 865.1,900.2 865,900 	"/>
	<linearGradient id="SVGID_5_" gradientUnits="userSpaceOnUse" x1="518.9951" y1="899.91" x2="519.2051" y2="899.91">
		<stop  offset="0" style="stop-color:#4BBCC0"/>
		<stop  offset="1" style="stop-color:#8AFFC7"/>
	</linearGradient>
	<polygon class="st14" points="519.1,899.8 519.2,900 519,900 	"/>
	<linearGradient id="SVGID_6_" gradientUnits="userSpaceOnUse" x1="864.9951" y1="899.82" x2="865.415" y2="899.82">
		<stop  offset="0" style="stop-color:#4BBCC0"/>
		<stop  offset="1" style="stop-color:#8AFFC7"/>
	</linearGradient>
	<polygon class="st15" points="865.4,900 865,900 865.2,899.6 	"/>
	<linearGradient id="SVGID_7_" gradientUnits="userSpaceOnUse" x1="692.2051" y1="600.09" x2="692.415" y2="600.09">
		<stop  offset="0" style="stop-color:#4BBCC0"/>
		<stop  offset="1" style="stop-color:#8AFFC7"/>
	</linearGradient>
	<polygon class="st16" points="692.4,600 692.3,600.2 692.2,600 	"/>
	<linearGradient id="SVGID_8_" gradientUnits="userSpaceOnUse" x1="345.9951" y1="599.91" x2="346.2051" y2="599.91">
		<stop  offset="0" style="stop-color:#4BBCC0"/>
		<stop  offset="1" style="stop-color:#8AFFC7"/>
	</linearGradient>
	<polygon class="st17" points="346.2,600 346,600 346.1,599.8 	"/>
	<linearGradient id="SVGID_9_" gradientUnits="userSpaceOnUse" x1="519.2051" y1="300.09" x2="519.415" y2="300.09">
		<stop  offset="0" style="stop-color:#4BBCC0"/>
		<stop  offset="1" style="stop-color:#8AFFC7"/>
	</linearGradient>
	<polygon class="st18" points="519.4,300 519.3,300.2 519.2,300 	"/>
	<linearGradient id="SVGID_10_" gradientUnits="userSpaceOnUse" x1="172.9951" y1="299.91" x2="173.2051" y2="299.91">
		<stop  offset="0" style="stop-color:#4BBCC0"/>
		<stop  offset="1" style="stop-color:#8AFFC7"/>
	</linearGradient>
	<polygon class="st19" points="173.2,300 173,300 173.1,299.8 	"/>
	<linearGradient id="SVGID_11_" gradientUnits="userSpaceOnUse" x1="346.2051" y1="8.999634e-02" x2="346.415" y2="8.999634e-02">
		<stop  offset="0" style="stop-color:#4BBCC0"/>
		<stop  offset="1" style="stop-color:#8AFFC7"/>
	</linearGradient>
	<polygon class="st20" points="346.4,0 346.3,0.2 346.2,0 	"/>
	<linearGradient id="SVGID_12_" gradientUnits="userSpaceOnUse" x1="1383.9951" y1="0.18" x2="1384.415" y2="0.18">
		<stop  offset="0" style="stop-color:#4BBCC0"/>
		<stop  offset="1" style="stop-color:#8AFFC7"/>
	</linearGradient>
	<polygon class="st21" points="1384.4,0 1384.3,0.2 1384.2,0.4 1384.1,0.2 1384,0 	"/>
	<linearGradient id="SVGID_13_" gradientUnits="userSpaceOnUse" x1="1210.9951" y1="299.82" x2="1211.415" y2="299.82">
		<stop  offset="0" style="stop-color:#4BBCC0"/>
		<stop  offset="1" style="stop-color:#8AFFC7"/>
	</linearGradient>
	<polygon class="st22" points="1211.3,299.8 1211.4,300 1211,300 1211.1,299.8 1211.2,299.6 	"/>
	<linearGradient id="SVGID_14_" gradientUnits="userSpaceOnUse" x1="1384.105" y1="0.18" x2="1384.3149" y2="0.18">
		<stop  offset="0" style="stop-color:#4BBCC0"/>
		<stop  offset="1" style="stop-color:#8AFFC7"/>
	</linearGradient>
	<polygon class="st23" points="1384.2,0 1384.3,0.2 1384.2,0.4 1384.1,0.2 	"/>
	<linearGradient id="SVGID_15_" gradientUnits="userSpaceOnUse" x1="1557.2051" y1="299.91" x2="1557.415" y2="299.91">
		<stop  offset="0" style="stop-color:#4BBCC0"/>
		<stop  offset="1" style="stop-color:#8AFFC7"/>
	</linearGradient>
	<polygon class="st24" points="1557.4,300 1557.2,300 1557.3,299.8 	"/>
	<linearGradient id="SVGID_16_" gradientUnits="userSpaceOnUse" x1="1210.9951" y1="300.09" x2="1211.2051" y2="300.09">
		<stop  offset="0" style="stop-color:#4BBCC0"/>
		<stop  offset="1" style="stop-color:#8AFFC7"/>
	</linearGradient>
	<polygon class="st25" points="1211.2,300 1211.1,300.2 1211,300 	"/>
	<linearGradient id="SVGID_17_" gradientUnits="userSpaceOnUse" x1="1384.2051" y1="599.91" x2="1384.415" y2="599.91">
		<stop  offset="0" style="stop-color:#4BBCC0"/>
		<stop  offset="1" style="stop-color:#8AFFC7"/>
	</linearGradient>
	<polygon class="st26" points="1384.4,600 1384.2,600 1384.3,599.8 	"/>
	<linearGradient id="SVGID_18_" gradientUnits="userSpaceOnUse" x1="1037.9951" y1="600.09" x2="1038.2051" y2="600.09">
		<stop  offset="0" style="stop-color:#4BBCC0"/>
		<stop  offset="1" style="stop-color:#8AFFC7"/>
	</linearGradient>
	<polygon class="st27" points="1038.2,600 1038.1,600.2 1038,600 	"/>
	<linearGradient id="SVGID_19_" gradientUnits="userSpaceOnUse" x1="864.9951" y1="899.82" x2="865.415" y2="899.82">
		<stop  offset="0" style="stop-color:#4BBCC0"/>
		<stop  offset="1" style="stop-color:#8AFFC7"/>
	</linearGradient>
	<polygon class="st28" points="865.2,899.6 865.4,900 865,900 	"/>
	<linearGradient id="SVGID_20_" gradientUnits="userSpaceOnUse" x1="1211.2051" y1="899.91" x2="1211.415" y2="899.91">
		<stop  offset="0" style="stop-color:#4BBCC0"/>
		<stop  offset="1" style="stop-color:#8AFFC7"/>
	</linearGradient>
	<polygon class="st29" points="1211.4,900 1211.2,900 1211.3,899.8 	"/>
	<linearGradient id="SVGID_21_" gradientUnits="userSpaceOnUse" x1="864.9951" y1="900.18" x2="865.415" y2="900.18">
		<stop  offset="0" style="stop-color:#4BBCC0"/>
		<stop  offset="1" style="stop-color:#8AFFC7"/>
	</linearGradient>
	<polygon class="st30" points="865.4,900 865.3,900.2 865.2,900.4 865.1,900.2 865,900 	"/>
	<linearGradient id="SVGID_22_" gradientUnits="userSpaceOnUse" x1="40.7801" y1="1141.8201" x2="1264.3717" y2="-81.7716">
		<stop  offset="0" style="stop-color:#4BBCC0"/>
		<stop  offset="1" style="stop-color:#8AFFC7"/>
	</linearGradient>
	<polygon class="st31" points="1384.3,599.8 1384.2,600 1384.4,600 1211.3,899.8 1211.2,900 1211.4,900 1038.3,1199.8 1038.2,1200 
		1038.4,1200 865.2,1500 692,1200 692.2,1200 692.1,1199.8 519,900 519.2,900 519.1,899.8 346,600 346.2,600 346.1,599.8 173,300 
		173.2,300 173.1,299.8 0,0 346.2,0 346.3,0.2 519.4,300 519.2,300 519.3,300.2 692.4,600 692.2,600 692.3,600.2 865.2,899.6 
		865,900 865.1,900.2 865.2,900.4 865.3,900.2 865.4,900 865.2,899.6 1038.1,600.2 1038.2,600 1038,600 1211.1,300.2 1211.2,300 
		1211.4,300 1211.3,299.8 1211.2,299.6 1211.1,299.8 1211,300 865.2,300 865.1,299.8 692,0 1038,0 1038.1,0.2 1038.2,0.4 
		1038.3,0.2 1038.4,0 1384,0 1384.1,0.2 1384.2,0.4 1384.3,0.2 1384.4,0 1730.4,0 1557.3,299.8 1557.2,300 1557.4,300 	"/>
	<linearGradient id="SVGID_23_" gradientUnits="userSpaceOnUse" x1="1037.9951" y1="0.18" x2="1038.415" y2="0.18">
		<stop  offset="0" style="stop-color:#4BBCC0"/>
		<stop  offset="1" style="stop-color:#8AFFC7"/>
	</linearGradient>
	<polygon class="st32" points="1038.4,0 1038.3,0.2 1038.2,0.4 1038.1,0.2 1038,0 	"/>
	<linearGradient id="SVGID_24_" gradientUnits="userSpaceOnUse" x1="864.9951" y1="299.91" x2="865.2051" y2="299.91">
		<stop  offset="0" style="stop-color:#4BBCC0"/>
		<stop  offset="1" style="stop-color:#8AFFC7"/>
	</linearGradient>
	<polygon class="st33" points="865.1,299.8 865.2,300 865,300 	"/>
	<linearGradient id="SVGID_25_" gradientUnits="userSpaceOnUse" x1="1038.105" y1="0.18" x2="1038.3149" y2="0.18">
		<stop  offset="0" style="stop-color:#4BBCC0"/>
		<stop  offset="1" style="stop-color:#8AFFC7"/>
	</linearGradient>
	<polygon class="st34" points="1038.2,0 1038.3,0.2 1038.2,0.4 1038.1,0.2 	"/>
	<linearGradient id="SVGID_26_" gradientUnits="userSpaceOnUse" x1="1210.9951" y1="299.82" x2="1211.415" y2="299.82">
		<stop  offset="0" style="stop-color:#4BBCC0"/>
		<stop  offset="1" style="stop-color:#8AFFC7"/>
	</linearGradient>
	<polygon class="st35" points="1211.4,300 1211,300 1211.1,299.8 1211.2,299.6 1211.3,299.8 	"/>
	<linearGradient id="SVGID_27_" gradientUnits="userSpaceOnUse" x1="1037.9951" y1="0.18" x2="1038.415" y2="0.18">
		<stop  offset="0" style="stop-color:#4BBCC0"/>
		<stop  offset="1" style="stop-color:#8AFFC7"/>
	</linearGradient>
	<polygon class="st36" points="1038.4,0 1038.3,0.2 1038.2,0.4 1038.1,0.2 1038,0 	"/>
	<linearGradient id="SVGID_28_" gradientUnits="userSpaceOnUse" x1="1211.105" y1="299.82" x2="1211.3149" y2="299.82">
		<stop  offset="0" style="stop-color:#4BBCC0"/>
		<stop  offset="1" style="stop-color:#8AFFC7"/>
	</linearGradient>
	<polygon class="st37" points="1211.2,299.6 1211.3,299.8 1211.2,300 1211.1,299.8 	"/>
	<linearGradient id="SVGID_29_" gradientUnits="userSpaceOnUse" x1="1383.9951" y1="0.18" x2="1384.415" y2="0.18">
		<stop  offset="0" style="stop-color:#4BBCC0"/>
		<stop  offset="1" style="stop-color:#8AFFC7"/>
	</linearGradient>
	<polygon class="st38" points="1384.4,0 1384.3,0.2 1384.2,0.4 1384.1,0.2 1384,0 	"/>
</g>
</svg>
